<?xml version="1.0" standalone="no"?>
<!DOCTYPE svg PUBLIC "-//W3C//DTD SVG 20010904//EN"
 "http://www.w3.org/TR/2001/REC-SVG-20010904/DTD/svg10.dtd">
<svg version="1.0" xmlns="http://www.w3.org/2000/svg"
 width="4096.000000pt" height="4096.000000pt" viewBox="0 0 4096.000000 4096.000000"
 preserveAspectRatio="xMidYMid meet">

<g transform="translate(0.000000,4096.000000) scale(0.100000,-0.100000)"
fill="rgb(255,255,255)" stroke="none">
<path d="M3835 26880 l-3840 -3840 2563 0 2562 0 0 -6400 0 -6400 8960 0 8960
0 0 2560 0 2560 -6400 0 -6400 0 0 3840 0 3840 2562 0 2563 0 -3840 3840
c-2112 2112 -3842 3840 -3845 3840 -3 0 -1733 -1728 -3845 -3840z"/>
<path d="M17920 28160 l0 -2560 6400 0 6400 0 0 -3840 0 -3840 -2555 -2 -2555
-3 3835 -3835 3835 -3835 3835 3835 3835 3835 -2555 3 -2555 2 0 6400 0 6400
-8960 0 -8960 0 0 -2560z"/>
</g>
</svg>
